  0
SECTION
  2
HEADER
  9
$ACADVER
  1
AC1009
  9
$EXTMIN
 10
0.0
 20
0.0
 30
0.0
  9
$EXTMAX
 10
1000.0
 20
1000.0
 30
0.0
  9
$FILLMODE
 70
 0
  9
$SPLFRAME
 70
 1
  0
ENDSEC
  0
SECTION
  2
TABLES
  0
TABLE
  2
LAYER
 70
1
  0
LAYER
  2
0
 70
     0
 62
     7
  6
CONTINUOUS
  0
ENDTAB
  0
ENDSEC
  0
SECTION
  2
ENTITIES
  0
LINE
  8
0
 62
     152
 10
0
 20
3.80199
 30
0.0
 11
0.818554
 21
3.80199
 31
0.0
  0
LINE
  8
0
 62
     152
 10
0.818554
 20
3.80199
 30
0.0
 11
1.35186
 21
1.81901
 31
0.0
  0
LINE
  8
0
 62
     152
 10
1.35186
 20
1.81901
 30
0.0
 11
1.3615
 21
1.81901
 31
0.0
  0
LINE
  8
0
 62
     152
 10
1.3615
 20
1.81901
 30
0.0
 11
1.96095
 21
3.80199
 31
0.0
  0
LINE
  8
0
 62
     152
 10
1.96095
 20
3.80199
 30
0.0
 11
2.6417
 21
3.80199
 31
0.0
  0
LINE
  8
0
 62
     152
 10
2.6417
 20
3.80199
 30
0.0
 11
3.23012
 21
1.81901
 31
0.0
  0
LINE
  8
0
 62
     152
 10
3.23012
 20
1.81901
 30
0.0
 11
3.24115
 21
1.81901
 31
0.0
  0
LINE
  8
0
 62
     152
 10
3.24115
 20
1.81901
 30
0.0
 11
3.78548
 21
3.80199
 31
0.0
  0
LINE
  8
0
 62
     152
 10
3.78548
 20
3.80199
 30
0.0
 11
4.60403
 21
3.80199
 31
0.0
  0
LINE
  8
0
 62
     152
 10
4.60403
 20
3.80199
 30
0.0
 11
3.43269
 21
0
 31
0.0
  0
LINE
  8
0
 62
     152
 10
3.43269
 20
0
 30
0.0
 11
3.06614
 21
0
 31
0.0
  0
LINE
  8
0
 62
     152
 10
3.06614
 20
0
 30
0.0
 11
2.3027
 21
2.4281
 31
0.0
  0
LINE
  8
0
 62
     152
 10
2.3027
 20
2.4281
 30
0.0
 11
2.2903
 21
2.4281
 31
0.0
  0
LINE
  8
0
 62
     152
 10
2.2903
 20
2.4281
 30
0.0
 11
1.5434
 21
0
 31
0.0
  0
LINE
  8
0
 62
     152
 10
1.5434
 20
0
 30
0.0
 11
1.17547
 21
0
 31
0.0
  0
LINE
  8
0
 62
     152
 10
1.17547
 20
0
 30
0.0
 11
0
 21
3.80199
 31
0.0
  0
LINE
  8
0
 62
     152
 10
7.23607
 20
3.80199
 30
0.0
 11
8.08771
 21
3.80199
 31
0.0
  0
LINE
  8
0
 62
     152
 10
8.08771
 20
3.80199
 30
0.0
 11
8.08771
 21
0.0496094
 31
0.0
  0
LINE
  8
0
 62
     152
 10
8.08771
 20
0.0496094
 30
0.0
 11
7.23607
 21
0.0496094
 31
0.0
  0
LINE
  8
0
 62
     152
 10
7.23607
 20
0.0496094
 30
0.0
 11
7.23607
 21
3.80199
 31
0.0
  0
LINE
  8
0
 62
     152
 10
11.0519
 20
3.80199
 30
0.0
 11
11.9035
 21
3.80199
 31
0.0
  0
LINE
  8
0
 62
     152
 10
11.9035
 20
3.80199
 30
0.0
 11
11.9035
 21
0.724849
 31
0.0
  0
LINE
  8
0
 62
     152
 10
11.9035
 20
0.724849
 30
0.0
 11
13.2774
 21
0.724849
 31
0.0
  0
LINE
  8
0
 62
     152
 10
13.2774
 20
0.724849
 30
0.0
 11
13.2774
 21
0.0496094
 31
0.0
  0
LINE
  8
0
 62
     152
 10
13.2774
 20
0.0496094
 30
0.0
 11
11.0519
 21
0.0496094
 31
0.0
  0
LINE
  8
0
 62
     152
 10
11.0519
 20
0.0496094
 30
0.0
 11
11.0519
 21
3.80199
 31
0.0
  0
LINE
  8
0
 62
     152
 10
16.9595
 20
0.680752
 30
0.0
 11
17.118
 21
0.680752
 31
0.0
  0
LINE
  8
0
 62
     152
 10
17.118
 20
0.680752
 30
0.0
 11
17.5934
 21
1.01424
 31
0.0
  0
LINE
  8
0
 62
     152
 10
17.5934
 20
1.01424
 30
0.0
 11
17.7671
 21
1.6881
 31
0.0
  0
LINE
  8
0
 62
     152
 10
17.7671
 20
1.6881
 30
0.0
 11
17.7671
 21
1.91134
 31
0.0
  0
LINE
  8
0
 62
     152
 10
17.7671
 20
1.91134
 30
0.0
 11
17.7671
 21
2.03536
 31
0.0
  0
LINE
  8
0
 62
     152
 10
17.7671
 20
2.03536
 30
0.0
 11
17.7298
 21
2.40743
 31
0.0
  0
LINE
  8
0
 62
     152
 10
17.7298
 20
2.40743
 30
0.0
 11
17.6058
 21
2.80706
 31
0.0
  0
LINE
  8
0
 62
     152
 10
17.6058
 20
2.80706
 30
0.0
 11
17.3702
 21
3.0744
 31
0.0
  0
LINE
  8
0
 62
     152
 10
17.3702
 20
3.0744
 30
0.0
 11
17.0946
 21
3.17087
 31
0.0
  0
LINE
  8
0
 62
     152
 10
17.0946
 20
3.17087
 30
0.0
 11
17.0036
 21
3.17087
 31
0.0
  0
LINE
  8
0
 62
     152
 10
17.0036
 20
3.17087
 30
0.0
 11
16.7569
 21
3.17087
 31
0.0
  0
LINE
  8
0
 62
     152
 10
16.7569
 20
3.17087
 30
0.0
 11
16.7569
 21
0.680752
 31
0.0
  0
LINE
  8
0
 62
     152
 10
16.7569
 20
0.680752
 30
0.0
 11
16.9595
 21
0.680752
 31
0.0
  0
LINE
  8
0
 62
     152
 10
15.9053
 20
3.80199
 30
0.0
 11
17.0146
 21
3.80199
 31
0.0
  0
LINE
  8
0
 62
     152
 10
17.0146
 20
3.80199
 30
0.0
 11
17.2007
 21
3.80199
 31
0.0
  0
LINE
  8
0
 62
     152
 10
17.2007
 20
3.80199
 30
0.0
 11
17.7629
 21
3.64215
 31
0.0
  0
LINE
  8
0
 62
     152
 10
17.7629
 20
3.64215
 30
0.0
 11
18.2645
 21
3.22185
 31
0.0
  0
LINE
  8
0
 62
     152
 10
18.2645
 20
3.22185
 30
0.0
 11
18.547
 21
2.6293
 31
0.0
  0
LINE
  8
0
 62
     152
 10
18.547
 20
2.6293
 30
0.0
 11
18.6352
 21
2.12494
 31
0.0
  0
LINE
  8
0
 62
     152
 10
18.6352
 20
2.12494
 30
0.0
 11
18.6352
 21
1.95544
 31
0.0
  0
LINE
  8
0
 62
     152
 10
18.6352
 20
1.95544
 30
0.0
 11
18.6352
 21
1.79007
 31
0.0
  0
LINE
  8
0
 62
     152
 10
18.6352
 20
1.79007
 30
0.0
 11
18.5511
 21
1.29398
 31
0.0
  0
LINE
  8
0
 62
     152
 10
18.5511
 20
1.29398
 30
0.0
 11
18.2811
 21
0.679372
 31
0.0
  0
LINE
  8
0
 62
     152
 10
18.2811
 20
0.679372
 30
0.0
 11
17.7932
 21
0.227376
 31
0.0
  0
LINE
  8
0
 62
     152
 10
17.7932
 20
0.227376
 30
0.0
 11
17.242
 21
0.0496094
 31
0.0
  0
LINE
  8
0
 62
     152
 10
17.242
 20
0.0496094
 30
0.0
 11
17.0587
 21
0.0496094
 31
0.0
  0
LINE
  8
0
 62
     152
 10
17.0587
 20
0.0496094
 30
0.0
 11
15.9053
 21
0.0496094
 31
0.0
  0
LINE
  8
0
 62
     152
 10
15.9053
 20
0.0496094
 30
0.0
 11
15.9053
 21
3.80199
 31
0.0
  0
LINE
  8
0
 62
     152
 10
22.6481
 20
1.44005
 30
0.0
 11
22.3559
 21
2.80155
 31
0.0
  0
LINE
  8
0
 62
     152
 10
22.3559
 20
2.80155
 30
0.0
 11
22.3463
 21
2.80155
 31
0.0
  0
LINE
  8
0
 62
     152
 10
22.3463
 20
2.80155
 30
0.0
 11
22.0486
 21
1.44005
 31
0.0
  0
LINE
  8
0
 62
     152
 10
22.0486
 20
1.44005
 30
0.0
 11
22.6481
 21
1.44005
 31
0.0
  0
LINE
  8
0
 62
     152
 10
21.9053
 20
3.82404
 30
0.0
 11
22.79
 21
3.82404
 31
0.0
  0
LINE
  8
0
 62
     152
 10
22.79
 20
3.82404
 30
0.0
 11
23.7739
 21
0.0496094
 31
0.0
  0
LINE
  8
0
 62
     152
 10
23.7739
 20
0.0496094
 30
0.0
 11
22.9499
 21
0.0496094
 31
0.0
  0
LINE
  8
0
 62
     152
 10
22.9499
 20
0.0496094
 30
0.0
 11
22.7735
 21
0.829578
 31
0.0
  0
LINE
  8
0
 62
     152
 10
22.7735
 20
0.829578
 30
0.0
 11
21.9274
 21
0.829578
 31
0.0
  0
LINE
  8
0
 62
     152
 10
21.9274
 20
0.829578
 30
0.0
 11
21.7468
 21
0.0496094
 31
0.0
  0
LINE
  8
0
 62
     152
 10
21.7468
 20
0.0496094
 30
0.0
 11
20.9228
 21
0.0496094
 31
0.0
  0
LINE
  8
0
 62
     152
 10
20.9228
 20
0.0496094
 30
0.0
 11
21.9053
 21
3.82404
 31
0.0
  0
LINE
  8
0
 62
     152
 10
27.1984
 20
3.80199
 30
0.0
 11
27.1984
 21
1.21956
 31
0.0
  0
LINE
  8
0
 62
     152
 10
27.1984
 20
1.21956
 30
0.0
 11
27.1984
 21
1.12861
 31
0.0
  0
LINE
  8
0
 62
     152
 10
27.1984
 20
1.12861
 30
0.0
 11
27.3155
 21
0.854385
 31
0.0
  0
LINE
  8
0
 62
     152
 10
27.3155
 20
0.854385
 30
0.0
 11
27.5732
 21
0.70969
 31
0.0
  0
LINE
  8
0
 62
     152
 10
27.5732
 20
0.70969
 30
0.0
 11
27.66
 21
0.70969
 31
0.0
  0
LINE
  8
0
 62
     152
 10
27.66
 20
0.70969
 30
0.0
 11
27.7482
 21
0.70969
 31
0.0
  0
LINE
  8
0
 62
     152
 10
27.7482
 20
0.70969
 30
0.0
 11
28.0142
 21
0.859896
 31
0.0
  0
LINE
  8
0
 62
     152
 10
28.0142
 20
0.859896
 30
0.0
 11
28.1216
 21
1.16307
 31
0.0
  0
LINE
  8
0
 62
     152
 10
28.1216
 20
1.16307
 30
0.0
 11
28.1216
 21
1.26366
 31
0.0
  0
LINE
  8
0
 62
     152
 10
28.1216
 20
1.26366
 30
0.0
 11
28.1216
 21
3.80199
 31
0.0
  0
LINE
  8
0
 62
     152
 10
28.1216
 20
3.80199
 30
0.0
 11
28.9733
 21
3.80199
 31
0.0
  0
LINE
  8
0
 62
     152
 10
28.9733
 20
3.80199
 30
0.0
 11
28.9733
 21
1.33532
 31
0.0
  0
LINE
  8
0
 62
     152
 10
28.9733
 20
1.33532
 30
0.0
 11
28.9733
 21
1.19751
 31
0.0
  0
LINE
  8
0
 62
     152
 10
28.9733
 20
1.19751
 30
0.0
 11
28.8919
 21
0.77997
 31
0.0
  0
LINE
  8
0
 62
     152
 10
28.8919
 20
0.77997
 30
0.0
 11
28.6494
 21
0.359668
 31
0.0
  0
LINE
  8
0
 62
     152
 10
28.6494
 20
0.359668
 30
0.0
 11
28.2401
 21
0.0937066
 31
0.0
  0
LINE
  8
0
 62
     152
 10
28.2401
 20
0.0937066
 30
0.0
 11
27.8047
 21
0
 31
0.0
  0
LINE
  8
0
 62
     152
 10
27.8047
 20
0
 30
0.0
 11
27.66
 21
0
 31
0.0
  0
LINE
  8
0
 62
     152
 10
27.66
 20
0
 30
0.0
 11
27.5263
 21
0
 31
0.0
  0
LINE
  8
0
 62
     152
 10
27.5263
 20
0
 30
0.0
 11
27.1253
 21
0.0757922
 31
0.0
  0
LINE
  8
0
 62
     152
 10
27.1253
 20
0.0757922
 30
0.0
 11
26.7105
 21
0.312815
 31
0.0
  0
LINE
  8
0
 62
     152
 10
26.7105
 20
0.312815
 30
0.0
 11
26.4418
 21
0.72347
 31
0.0
  0
LINE
  8
0
 62
     152
 10
26.4418
 20
0.72347
 30
0.0
 11
26.3467
 21
1.17409
 31
0.0
  0
LINE
  8
0
 62
     152
 10
26.3467
 20
1.17409
 30
0.0
 11
26.3467
 21
1.3243
 31
0.0
  0
LINE
  8
0
 62
     152
 10
26.3467
 20
1.3243
 30
0.0
 11
26.3467
 21
3.80199
 31
0.0
  0
LINE
  8
0
 62
     152
 10
26.3467
 20
3.80199
 30
0.0
 11
27.1984
 21
3.80199
 31
0.0
  0
LINE
  8
0
 62
     152
 10
21.8157
 20
5.49561
 30
0.0
 11
26.1772
 21
5.49561
 31
0.0
  0
LINE
  8
0
 62
     152
 10
26.1772
 20
5.49561
 30
0.0
 11
26.1772
 21
8.98758
 31
0.0
  0
LINE
  8
0
 62
     152
 10
26.1772
 20
8.98758
 30
0.0
 11
21.8157
 21
8.98758
 31
0.0
  0
LINE
  8
0
 62
     152
 10
21.8157
 20
8.98758
 30
0.0
 11
21.8157
 21
5.49561
 31
0.0
  0
LINE
  8
0
 62
     152
 10
32.5382
 20
19.5971
 30
0.0
 11
30.2452
 21
19.5971
 31
0.0
  0
LINE
  8
0
 62
     152
 10
30.2452
 20
19.5971
 30
0.0
 11
30.2452
 21
21.8915
 31
0.0
  0
LINE
  8
0
 62
     152
 10
30.2452
 20
21.8915
 30
0.0
 11
32.5382
 21
21.8915
 31
0.0
  0
LINE
  8
0
 62
     152
 10
32.5382
 20
21.8915
 30
0.0
 11
32.5382
 21
19.5971
 31
0.0
  0
LINE
  8
0
 62
     152
 10
29.5451
 20
24.0247
 30
0.0
 11
29.5451
 21
26.3192
 31
0.0
  0
LINE
  8
0
 62
     152
 10
29.5451
 20
26.3192
 30
0.0
 11
31.8409
 21
26.3192
 31
0.0
  0
LINE
  8
0
 62
     152
 10
31.8409
 20
26.3192
 30
0.0
 11
31.8409
 21
24.0247
 31
0.0
  0
LINE
  8
0
 62
     152
 10
31.8409
 20
24.0247
 30
0.0
 11
29.5451
 21
24.0247
 31
0.0
  0
LINE
  8
0
 62
     152
 10
28.0761
 20
22.2264
 30
0.0
 11
25.7831
 21
22.2264
 31
0.0
  0
LINE
  8
0
 62
     152
 10
25.7831
 20
22.2264
 30
0.0
 11
25.7831
 21
24.5208
 31
0.0
  0
LINE
  8
0
 62
     152
 10
25.7831
 20
24.5208
 30
0.0
 11
28.0761
 21
24.5208
 31
0.0
  0
LINE
  8
0
 62
     152
 10
28.0761
 20
24.5208
 30
0.0
 11
28.0761
 21
22.2264
 31
0.0
  0
LINE
  8
0
 62
     152
 10
24.857
 20
25.7583
 30
0.0
 11
22.5626
 21
25.7583
 31
0.0
  0
LINE
  8
0
 62
     152
 10
22.5626
 20
25.7583
 30
0.0
 11
22.5626
 21
28.0513
 31
0.0
  0
LINE
  8
0
 62
     152
 10
22.5626
 20
28.0513
 30
0.0
 11
24.857
 21
28.0513
 31
0.0
  0
LINE
  8
0
 62
     152
 10
24.857
 20
28.0513
 30
0.0
 11
24.857
 21
25.7583
 31
0.0
  0
LINE
  8
0
 62
     152
 10
35.6168
 20
25.3835
 30
0.0
 11
37.0417
 21
29.654
 31
0.0
  0
LINE
  8
0
 62
     152
 10
37.0417
 20
29.654
 30
0.0
 11
33.6765
 21
29.654
 31
0.0
  0
LINE
  8
0
 62
     152
 10
33.6765
 20
29.654
 30
0.0
 11
33.6765
 21
27.4808
 31
0.0
  0
LINE
  8
0
 62
     152
 10
33.6765
 20
27.4808
 30
0.0
 11
31.3821
 21
27.4808
 31
0.0
  0
LINE
  8
0
 62
     152
 10
31.3821
 20
27.4808
 30
0.0
 11
31.3821
 21
29.654
 31
0.0
  0
LINE
  8
0
 62
     152
 10
31.3821
 20
29.654
 30
0.0
 11
28.8727
 21
29.654
 31
0.0
  0
LINE
  8
0
 62
     152
 10
28.8727
 20
29.654
 30
0.0
 11
28.8727
 21
27.4808
 31
0.0
  0
LINE
  8
0
 62
     152
 10
28.8727
 20
27.4808
 30
0.0
 11
26.5782
 21
27.4808
 31
0.0
  0
LINE
  8
0
 62
     152
 10
26.5782
 20
27.4808
 30
0.0
 11
26.5782
 21
29.654
 31
0.0
  0
LINE
  8
0
 62
     152
 10
26.5782
 20
29.654
 30
0.0
 11
8.05325
 21
29.654
 31
0.0
  0
LINE
  8
0
 62
     152
 10
8.05325
 20
29.654
 30
0.0
 11
4.02664
 21
17.5755
 31
0.0
  0
LINE
  8
0
 62
     152
 10
4.02664
 20
17.5755
 30
0.0
 11
13.8686
 21
17.5755
 31
0.0
  0
LINE
  8
0
 62
     152
 10
13.8686
 20
17.5755
 30
0.0
 11
13.8686
 21
14.1111
 31
0.0
  0
LINE
  8
0
 62
     152
 10
13.8686
 20
14.1111
 30
0.0
 11
10.3367
 21
14.1111
 31
0.0
  0
LINE
  8
0
 62
     152
 10
10.3367
 20
14.1111
 30
0.0
 11
10.3367
 21
5.49561
 31
0.0
  0
LINE
  8
0
 62
     152
 10
10.3367
 20
5.49561
 30
0.0
 11
17.8539
 21
5.49561
 31
0.0
  0
LINE
  8
0
 62
     152
 10
17.8539
 20
5.49561
 30
0.0
 11
17.8539
 21
17.5755
 31
0.0
  0
LINE
  8
0
 62
     152
 10
17.8539
 20
17.5755
 30
0.0
 11
21.8157
 21
17.5755
 31
0.0
  0
LINE
  8
0
 62
     152
 10
21.8157
 20
17.5755
 30
0.0
 11
21.8157
 21
12.5525
 31
0.0
  0
LINE
  8
0
 62
     152
 10
21.8157
 20
12.5525
 30
0.0
 11
26.1772
 21
12.5525
 31
0.0
  0
LINE
  8
0
 62
     152
 10
26.1772
 20
12.5525
 30
0.0
 11
26.1772
 21
17.5755
 31
0.0
  0
LINE
  8
0
 62
     152
 10
26.1772
 20
17.5755
 30
0.0
 11
30.1418
 21
17.5755
 31
0.0
  0
LINE
  8
0
 62
     152
 10
30.1418
 20
17.5755
 30
0.0
 11
30.1418
 21
8.99583
 31
0.0
  0
LINE
  8
0
 62
     152
 10
30.1418
 20
8.99583
 30
0.0
 11
34.8506
 21
23.089
 31
0.0
  0
LINE
  8
0
 62
     152
 10
34.8506
 20
23.089
 30
0.0
 11
33.467
 21
23.089
 31
0.0
  0
LINE
  8
0
 62
     152
 10
33.467
 20
23.089
 30
0.0
 11
33.467
 21
25.3835
 31
0.0
  0
LINE
  8
0
 62
     152
 10
33.467
 20
25.3835
 30
0.0
 11
35.6168
 21
25.3835
 31
0.0
  0
LINE
  8
0
 62
     152
 10
0
 20
5.49561
 30
0.0
 11
6.37342
 21
5.49561
 31
0.0
  0
LINE
  8
0
 62
     152
 10
6.37342
 20
5.49561
 30
0.0
 11
6.37342
 21
14.1111
 31
0.0
  0
LINE
  8
0
 62
     152
 10
6.37342
 20
14.1111
 30
0.0
 11
2.87183
 21
14.1111
 31
0.0
  0
LINE
  8
0
 62
     152
 10
2.87183
 20
14.1111
 30
0.0
 11
0
 21
5.49561
 31
0.0
  0
ENDSEC
  0
EOF
